<svg version="1.1" id="Layer_1" xmlns="http://www.w3.org/2000/svg" xmlns:xlink="http://www.w3.org/1999/xlink" x="0px"
     y="0px"
     viewBox="0 0 650 650" style="enable-background:new 0 0 650 650;" xml:space="preserve">
<g>
	<g>
		<g>
			<defs>
				<path id="SVGID_1_" d="M320.231,34.335c-49.78,8.474-99.559,16.948-149.339,25.422c-23.472,45.16-51.4,108.081-69.571,181.965
					c0,0-22.165,90.123-4.502,149.513c1.588,5.341,3.433,10.573,3.433,10.573c1.344,3.9,2.838,7.724,4.406,11.474
					c37.495,91.944,127.576,152.257,181.799,181.566c25.837,13.978,43.517,20.974,43.517,20.974
					c66.374-29.737,113.865-62.873,147.791-95.953c63.421-61.893,79.324-123.706,81.853-163.202
					c1.686-26.307-2.562-42.727-2.562-42.727L495.431,60.217l-18.134-2.65L320.231,34.335z"/>
			</defs>
            <clipPath id="SVGID_2_">
				<use xlink:href="#SVGID_1_" style="overflow:visible;"/>
			</clipPath>

            <linearGradient id="SVGID_3_" gradientUnits="userSpaceOnUse" x1="-563.3693" y1="-742.7117" x2="-562.3693"
                            y2="-742.7117"
                            gradientTransform="matrix(-387.0804 -508.1148 -508.1148 387.0804 -595000.5625 1748.0615)">
				<stop offset="0" style="stop-color:#E52332"/>
                <stop offset="1" style="stop-color:#FEC713"/>
			</linearGradient>
            <polygon style="clip-path:url(#SVGID_2_);fill:url(#SVGID_3_);" points="238.882,861.46 -228.54,247.882 374.295,-211.356
				841.717,402.222 			"/>
		</g>
	</g>
    <g>
		<g style="opacity:0.5;">
			<g>
				<g>
					<defs>

							<rect id="SVGID_4_" x="153.496" y="205.733"
                                  transform="matrix(0.0014 -1 1 0.0014 -108.6344 757.5572)" width="343.009"
                                  height="454.881"/>
					</defs>
                    <clipPath id="SVGID_5_">
						<use xlink:href="#SVGID_4_" style="overflow:visible;"/>
					</clipPath>
                    <path style="clip-path:url(#SVGID_5_);fill:#231F20;" d="M97.59,413.285c6.558-26.149,28.169-96.123,78.893-136.45
						c63.406-50.351,301.937,39.78,301.937,39.78s-28.887,37.153-91.194,36.982c0,0,45.85,56.117,118.735,33.885
						c22.42-6.862,37.052-18.31,46.589-30.813c-2.529,39.494-18.433,101.308-81.854,163.202
						c-19.131,13.389-38.786,25.203-57.985,33.87c-37.65,17.036-50.543,40.57-96.801,50.923
						C261.685,575.358,135.085,505.23,97.59,413.285"/>
				</g>
			</g>
		</g>
	</g>
    <g>
		<g>
			<defs>
				<path id="SVGID_6_" d="M313.844,117.421c0,0-36.757,25.907-58.351,76.388c0,0-64.426,22.968-93.806,81.872l9.887-3.28
					c0,0-64.965,125.223,20.211,243.763c23.846,33.222,59.483,65.891,111.647,95.133c13.994,7.844,31.256,7.108,44.544-1.88v-0.001
					l135.461-91.653l18.692-17.78c0,0-6.151-29.815-87.708-67.266c-53.948-24.761-63.87-58.597-64.368-78.672
					c-0.086-2.284,0.006-4.393,0.097-6.281c0.492-6.631,1.816-10.67,1.816-10.67s116.818,12.948,140.487-44.866
					c2.909-7.068,4.416-15.192,4.165-24.504l-63.663-19.108c0,0-4.339-37.342-38.367-46.922
					c-34.026-9.536-63.664-17.66-63.664-17.66L313.844,117.421z"/>
			</defs>
            <clipPath id="SVGID_7_">
				<use xlink:href="#SVGID_6_" style="overflow:visible;"/>
			</clipPath>

            <linearGradient id="SVGID_8_" gradientUnits="userSpaceOnUse" x1="-562.5162" y1="-742.8295" x2="-561.5162"
                            y2="-742.8295"
                            gradientTransform="matrix(-111.7772 -351.9612 -351.9612 111.7772 -323968.5 -114424.7344)">
				<stop offset="0" style="stop-color:#E52332"/>
                <stop offset="1" style="stop-color:#FEC713"/>
			</linearGradient>
            <polygon style="clip-path:url(#SVGID_7_);fill:url(#SVGID_8_);" points="142.707,733.495 -38.378,163.3 466.259,3.034
				647.345,573.231 			"/>
		</g>
	</g>
    <g>
		<path style="fill:#FFFFFF;" d="M200.265,388.587c-12.348,4.067-18.68,9.021-18.68,9.021
			c27.025-70.109,80.286-88.084,80.286-88.084c-11.331-1.511-22.313-0.032-22.313-0.032c76.551-56.642,218.122,2.505,248.285-20.028
			l5.267,2.774c-23.669,57.813-140.487,44.866-140.487,44.866l-24.653,8.002c-72.8,43.25-29.592,145.478-29.592,145.478
			c-18.6-15.971-24.634-36.316-24.634-36.316c-2.909,69.044,42.342,124.497,74.89,155.158c-13.275,8.979-30.526,9.736-44.506,1.898
			c-18.837-10.56-35.515-21.568-50.28-32.91c-26.107-19.978-46.15-41.004-61.407-62.239
			C178.611,450.928,200.265,388.587,200.265,388.587"/>
        <path style="fill:#94A3AB;" d="M253.847,578.414c-27.419-54.462-27.337-111.562-27.338-111.562
			c12.396,34.059,28.033,44.067,29.173,45.43c-25.839-73.609-7.608-153.562-7.608-153.562c1.989,17.024,10.393,27.446,10.393,27.446
			c3.369-52.132,37.709-77.866,97.567-70.402c59.813,7.507,115.04-2.561,131.809-26.299l5.266,2.774
			c-23.669,57.813-140.487,44.866-140.487,44.866l-24.652,8.002c-72.799,43.25-29.593,145.478-29.593,145.478
			c-18.6-15.971-24.633-36.316-24.633-36.316c8.312,75.254,42.341,124.497,74.889,155.158c-13.275,8.979-30.526,9.736-44.506,1.898
			C285.291,600.765,268.612,589.756,253.847,578.414"/>
        <path style="fill:#FDD08E;" d="M418.134,476.436c-68.761-47.227-82.821-75.315-73.036-130.118c0,0,2.107,0.53,5.709,1.458
			c-0.091,1.888-0.183,3.997-0.097,6.28c0.499,20.075,10.42,53.911,64.368,78.673c81.557,37.451,87.708,67.265,87.708,67.265
			l-18.693,17.781c-36.488-39.319-83.578-67.411-85.378-68.467C410.154,466.85,418.134,476.436,418.134,476.436"/>
        <path style="fill:#0A0406;" d="M162.159,287.405c-18.54,38.773-37.064,112.099-7.598,180.311
			c41.546,96.164,157.606,148.524,162.873,151.168l12.449-2.159l175.849-118.557l5.141-1.721
			c-7.479-22.28-30.785-35.296-62.384-53.131c-42.674-24.018-90.72-51.142-90.202-99.297c11.966-1.679,24.842-2.531,38.253-3.382
			c13.179-0.816,26.797-1.675,40.064-3.501c65.723-8.956,70.152-65.435,70.196-66.005l0.315-5.008l-70.199-24.39
			c-7.945-27.206-31.27-43.332-53.8-52.81c2.982-36.268-11.091-60.88-11.721-61.954l-3.039-5.186l-5.442,2.551
			c-13.806,6.473-23.634,14.872-29.976,21.55c-2.663-9.626-6.322-20.254-11.318-31.826l-2.846-6.593l-6.33,3.417
			c-1.758,0.965-41.98,23.308-63.143,79.061c-14.721,4.854-80.086,24.539-102.308,106.999L162.159,287.405 M166.689,462.506
			c-39.227-90.759,14.363-184.724,14.891-185.689l11.404-19.574l-17.056,8.849c27.214-49.376,79.55-64.28,80.166-64.455l3.295-0.874
			l1.147-3.248c14.509-40.433,40.234-62.533,51.975-70.994c19.914,50.233,12.406,78.553,12.318,78.817
			c0,0,7.952-4.191,11.737-15.587c17.218,2.606,78.242,14.833,88.437,58.556l0.829,3.514l45.85,15.928l16.169,21.714
			c-6.764,13.672-21.388,30.321-53.03,34.626c-12.784,1.739-26.182,2.598-39.141,3.414c-29.125,1.848-58.819,3.693-81.721,16.048
			c0,0.044,0,0.044-0.044,0.044c-0.22,0.176-0.527,0.35-0.791,0.526c-28.005,17.266-21.679,47.231-21.679,47.231
			c8.867-27.883,28.436-39.486,53.636-45.022c0.832,54.316,53.797,84.172,96.933,108.487c25.632,14.442,49.945,28.138,58.445,43.742
			L350.01,600.834c-13.807,9.386-31.839,9.848-46.042,1.074C264.861,577.75,194.702,527.359,166.689,462.506"/>
        <path style="fill:#0A0406;" d="M384.241,228.24c-22.867-6.805-39.897-0.057-39.897-0.057l50.855,15.446
			C381.049,236.609,384.241,228.24,384.241,228.24"/>
        <g>
			<g>
				<g>
					<defs>

							<rect id="SVGID_9_" x="265" y="154.279"
                                  transform="matrix(0.0014 -1 1 0.0014 118.0952 467.8802)" width="56.641"
                                  height="41.06"/>
					</defs>
                    <clipPath id="SVGID_10_">
						<use xlink:href="#SVGID_9_" style="overflow:visible;"/>
					</clipPath>
                    <path style="clip-path:url(#SVGID_10_);fill:#FDFEFF;" d="M311.506,203.156c-14.306-2.554-13.842-13.734-13.842-13.734
						l-24.913,13.679c11.678-35.758,34.365-56.594,34.365-56.594C318.979,190.048,311.506,203.156,311.506,203.156"/>
				</g>
			</g>
		</g>
	</g>
    <g>
		<g style="opacity:0.5;">
			<g>
				<g>
					<defs>

							<rect id="SVGID_11_" x="261.244" y="390.949"
                                  transform="matrix(0.0014 -1 1 0.0014 -126.5369 862.2016)" width="214.402"
                                  height="207.02"/>
					</defs>
                    <clipPath id="SVGID_12_">
						<use xlink:href="#SVGID_11_" style="overflow:visible;"/>
					</clipPath>
                    <path style="clip-path:url(#SVGID_12_);fill:#231F20;" d="M315.871,601.586c0,0-77.543-103.606-41.148-214.461
						c13.094,122.639,106.88,130.502,106.88,130.502c-34.773-16.401-36.993-47.681-36.993-47.681
						c31.188,44.638,107.851,25.135,127.319,41.909L315.871,601.586z"/>
				</g>
			</g>
		</g>
        <path style="fill:#FDD08E;" d="M97.933,235.457c17.019-74.633,47.57-135.444,71.563-175.714l149.377-25.396l157.083,23.195
			l1.768,23.283c0,0-145.698-29.109-290.702,10.788c0,0-71.493,204.803-73.326,289.837c-0.376,16.646-6.006,22.217-14.788,20.359
			c-0.515-1.416-1.137-3.187-1.811-5.241c-0.001,0-0.861-2.629-1.645-5.306C76.875,327.8,97.933,235.457,97.933,235.457z"/>
        <path style="fill:#0A0406;" d="M89.831,266.906c-29.082,127.118-30.157,234.379,234.79,358.27
			c265.299-123.137,264.53-230.401,235.809-357.601c-24.836-110.151-47.517-191.62-53.636-213.326
			c-16.593-7.14-76.21-29.274-181.32-29.424C220.41,24.675,160.731,46.598,144.072,53.777
			c-5.572,19.518-24.749,87.623-46.903,181.529C94.754,245.542,92.304,256.086,89.831,266.906 M128.514,430.928
			c-22.95-45.801-18.71-93.716-4.433-156.155c20.509-89.794,39.495-160.265,48.987-194.382c24.653-8.09,75.05-20.536,152.356-20.427
			c77.307,0.11,127.67,12.699,152.299,20.859c9.395,34.143,28.181,104.668,48.435,194.52c14.098,62.48,18.203,110.407-4.877,156.142
			c-27.047,53.462-91.422,104.233-196.605,154.817C219.64,535.421,155.409,484.466,128.514,430.928"/>
        <g style="opacity:0.5;">
			<g>
				<g>
					<defs>

							<rect id="SVGID_13_" x="275.836" y="422.683"
                                  transform="matrix(0.0014 -1 1 0.0014 -122.7752 752.8062)" width="79.43"
                                  height="30.39"/>
					</defs>
                    <clipPath id="SVGID_14_">
						<use xlink:href="#SVGID_13_" style="overflow:visible;"/>
					</clipPath>
                    <path style="clip-path:url(#SVGID_14_);fill:#231F20;" d="M330.689,477.615c-54.115-39.975-19.287-79.458-19.287-79.457
						C301.827,438.774,330.689,477.615,330.689,477.615"/>
				</g>
			</g>
		</g>
        <g style="opacity:0.5;">
			<g>
				<g>
					<defs>

							<rect id="SVGID_15_" x="343.934" y="421.463"
                                  transform="matrix(0.0014 -1 1 0.0014 -80.5741 822.6267)" width="55.354"
                                  height="60.39"/>
					</defs>
                    <clipPath id="SVGID_16_">
						<use xlink:href="#SVGID_15_" style="overflow:visible;"/>
					</clipPath>
                    <path style="clip-path:url(#SVGID_16_);fill:#231F20;" d="M401.764,479.378c-67.199-3.271-60.097-55.439-60.097-55.439
						C356.213,463.05,401.764,479.378,401.764,479.378"/>
				</g>
			</g>
		</g>
	</g>
</g>
</svg>
